<?xml version="1.0" encoding="utf-8"?>
<svg version="1.1" id="Layer_1" xmlns="http://www.w3.org/2000/svg" xmlns:xlink="http://www.w3.org/1999/xlink" x="0px"
     y="0px"
     viewBox="0 0 1080 1080" style="enable-background:new 0 0 1080 1080;" xml:space="preserve">
<style type="text/css">
	.st0{fill:url(#SVGID_1_);}
</style>
    <linearGradient id="SVGID_1_" gradientUnits="userSpaceOnUse" x1="264.8562" y1="540" x2="815.1438" y2="540">
	<stop offset="3.435990e-03" style="stop-color:#17C671"/>
        <stop offset="1" style="stop-color:#016A4F"/>
</linearGradient>
    <path class="st0" d="M806.84,680.59H699.32c4.95-41.46,7.73-84.6,8.16-128.62h107.67C814.71,595.61,811.92,638.77,806.84,680.59z
	 M806.84,399.41H699.32c4.95,41.46,7.73,84.6,8.16,128.62h107.67C814.71,484.39,811.92,441.23,806.84,399.41z M605.85,34.49H544.8
	c0.76,0.53,1.52,1.05,2.28,1.6c19.58,14.25,38.16,34.33,55.3,59.72h0.07h102.11C680.85,64.66,647.22,34.49,605.85,34.49z
	 M617.23,119.74c17.69,30.96,33.1,67.31,45.96,107.68h106.47c-13.85-41.87-30.18-78.01-48.68-107.68H617.23z M777.08,251.35H670.4
	c10.91,38.53,19.58,80.26,25.8,124.14h107.45C797.27,331.45,788.35,289.8,777.08,251.35z M803.65,704.52H696.2
	c-6.22,43.88-14.89,85.61-25.8,124.14h106.69C788.35,790.2,797.27,748.55,803.65,704.52z M663.19,852.58
	c-12.86,40.37-28.28,76.72-45.96,107.68h103.76c18.5-29.69,34.83-65.82,48.68-107.68H663.19z M547.09,1043.91
	c-0.76,0.55-1.52,1.07-2.28,1.6h61.05c41.37,0,75.01-30.18,98.71-61.32H602.38C585.24,1009.59,566.66,1029.66,547.09,1043.91z
	 M474.24,34.49c19.86,0,39.64,7.05,58.76,20.95c18.58,13.52,36.37,33.32,52.9,58.84l1.33,2.05c60.38,94.6,96.38,252.7,96.38,423.68
	c0,170.67-35.87,328.51-96.06,423.17l-1.66,2.56c-16.53,25.52-34.33,45.32-52.9,58.83c-19.14,13.9-38.91,20.96-58.77,20.96
	c-53.25,0-106.29-52.6-145.52-144.3c-41.18-96.28-63.87-224.56-63.87-361.21s22.68-264.93,63.87-361.21
	C367.95,87.08,420.99,34.49,474.24,34.49z M615.9,633.69c0.5-6.59-4.44-12.34-11.03-12.83c-6.65-0.53-12.33,4.44-12.83,11.03
	c-12.79,169.83-67.24,297.89-126.65,297.89c-28.27,0-56.74-29.8-80.18-83.93c-24.61-56.85-41.34-135.97-47.1-222.78
	c-0.44-6.59-6.14-11.56-12.73-11.15c-6.59,0.44-11.59,6.14-11.15,12.73c12.85,193.74,75.01,329.05,151.15,329.05
	c38.32,0,73.19-33.01,100.86-95.46C591.69,800.82,609.32,721.07,615.9,633.69z M440.71,548.33c-0.01-2.91,0.9-4.72,3.35-4.73
	l20.78-0.06c44.01-0.12,73.9-20.54,73.75-75.75c-0.14-52.3-28.61-68.57-70.18-68.45l-48.6,0.13c-3.06,0.01-4.88,1.83-4.87,6.55
	l0.71,255.15c0.01,4,1.85,5.44,4.6,5.44l15.89-0.04c2.75-0.01,4.89-1.47,4.87-5.46L440.71,548.33z M465.39,126.29
	c-76.14,0-138.29,134.46-151.15,326.98c-0.44,6.59,4.55,12.29,11.14,12.74c0.27,0.02,0.54,0.03,0.81,0.03
	c6.25,0,11.5-4.85,11.93-11.17c5.76-86.23,22.48-164.82,47.09-221.29c23.43-53.75,51.91-83.36,80.19-83.36
	c59.42,0,113.86,127.2,126.65,295.88c0.5,6.59,6.19,11.51,12.84,11.02c6.59-0.5,11.52-6.25,11.02-12.84
	c-6.58-86.83-24.22-166.08-49.66-223.15C538.56,159.09,503.69,126.29,465.39,126.29z M463.87,522.48
	c32.7-0.09,48.54-18.66,48.44-53.53c-0.09-33.41-15.72-48.62-48.12-48.54l-20.48,0.06c-2.44,0.01-3.36,1.46-3.35,4.37l0.26,93.7
	c0.01,2.54,0.93,3.99,3.37,3.99L463.87,522.48z"/>
</svg>
